<svg width="14" height="14" viewBox="0 0 14 14" fill="none" xmlns="http://www.w3.org/2000/svg">
<path d="M14 12.3651C14 12.8014 13.8298 13.2126 13.5216 13.5208C13.2126 13.8298 12.8021 14 12.3651 14C11.9282 14 11.5177 13.8298 11.2094 13.5208L6.99999 9.31214L2.79276 13.5208C2.48381 13.8298 2.0733 14 1.63634 14C1.19937 14 0.788865 13.8298 0.480628 13.5208C0.171676 13.2126 0.00146455 12.8028 0.00146455 12.3651C0.00146455 11.9282 0.171674 11.5177 0.480628 11.2094L4.68786 6.99999L0.479163 2.79129C0.170212 2.48234 0 2.07183 0 1.63487C0 1.19791 0.17021 0.787401 0.478449 0.479163C0.786687 0.170926 1.19791 0 1.63487 0C2.07183 0 2.48234 0.17021 2.79058 0.479163L7.00001 4.68786L11.2072 0.479163C11.5162 0.170212 11.9267 0 12.3637 0C12.8006 0 13.2111 0.17021 13.5194 0.479163C13.8283 0.787401 13.9985 1.19862 13.9985 1.63487C13.9985 2.07112 13.8283 2.48234 13.5194 2.79058L9.31214 7.00001L13.5208 11.2087C13.8298 11.5177 14 11.9282 14 12.3651Z" fill="#EF5549"/>
</svg>
