<svg width="18" height="15" viewBox="0 0 18 15" fill="none" xmlns="http://www.w3.org/2000/svg">
<path d="M9.62173 14.2317C9.7621 14.7836 10.3049 15.1119 10.8318 14.9649C11.3588 14.8179 11.6723 14.2494 11.5319 13.6975L8.37769 1.36834C8.23732 0.816415 7.69455 0.488078 7.16757 0.635095C6.64059 0.782111 6.3271 1.35057 6.46747 1.9025L9.62173 14.2317ZM12.3713 11.3348C11.9911 11.744 11.9999 12.3989 12.3906 12.797C12.7813 13.1952 13.4065 13.186 13.7867 12.7768L17.7206 8.5213C18.0943 8.11884 18.092 7.47932 17.7206 7.07931L13.7867 2.8238C13.4065 2.41461 12.7813 2.40542 12.3906 2.80359C11.9999 3.20176 11.9911 3.85659 12.3713 4.26579L15.6384 7.80031L12.3713 11.3348ZM4.21334 12.7768C4.59351 13.186 5.21875 13.1952 5.60945 12.797C6.00015 12.3989 6.00892 11.744 5.62875 11.3348L2.3616 7.80031L5.62875 4.26579C6.00892 3.85659 6.00015 3.20176 5.60945 2.80359C5.21875 2.40542 4.59351 2.41461 4.21334 2.8238L0.279428 7.07931C-0.0919718 7.47932 -0.0943114 8.11884 0.279428 8.5213L4.21334 12.7768Z" fill="#333333"/>
</svg>
