<svg width="14" height="14" viewBox="0 0 14 14" fill="none" xmlns="http://www.w3.org/2000/svg">
<path fill-rule="evenodd" clip-rule="evenodd" d="M2.56103 0H11.439C12.1446 0 12.7849 0.288567 13.247 0.750725C13.7114 1.21514 14 1.85539 14 2.56103V11.439C14 12.1446 13.7114 12.7849 13.247 13.247C12.7826 13.7114 12.1424 14 11.439 14H2.56103C1.85539 14 1.21514 13.7114 0.750725 13.247C0.288567 12.7849 0 12.1446 0 11.439V2.56103C0 1.85765 0.288567 1.21739 0.750725 0.752979V0.750725C1.21514 0.288567 1.85539 0 2.56103 0ZM11.439 1.0934H2.56103C2.15749 1.0934 1.79002 1.25797 1.52399 1.52399C1.25797 1.79002 1.0934 2.15749 1.0934 2.56103V11.439C1.0934 11.8425 1.25797 12.21 1.52399 12.476C1.79002 12.742 2.15749 12.9066 2.56103 12.9066H11.439C11.8425 12.9066 12.21 12.742 12.476 12.476C12.742 12.21 12.9066 11.8425 12.9066 11.439V2.56103C12.9066 2.15749 12.742 1.79002 12.476 1.52399C12.21 1.25797 11.8425 1.0934 11.439 1.0934ZM3.89791 4.37134C3.59581 4.37134 3.35008 4.1256 3.35008 3.82351C3.35008 3.52367 3.59581 3.27794 3.89791 3.27794H10.1021C10.4042 3.27794 10.6499 3.52367 10.6499 3.82351C10.6499 4.1256 10.4042 4.37134 10.1021 4.37134H3.89791ZM3.89791 7.54557C3.59581 7.54557 3.35008 7.30209 3.35008 7C3.35008 6.69791 3.59581 6.45443 3.89791 6.45443H7C7.30209 6.45443 7.54557 6.69791 7.54557 7C7.54557 7.30209 7.30209 7.54557 7 7.54557H3.89791ZM3.89791 10.7221C3.59581 10.7221 3.35008 10.4763 3.35008 10.1742C3.35008 9.8744 3.59581 9.62866 3.89791 9.62866H10.1021C10.4042 9.62866 10.6499 9.8744 10.6499 10.1742C10.6499 10.4763 10.4042 10.7221 10.1021 10.7221H3.89791Z" fill="black"/>
</svg>
