<svg width="14" height="14" viewBox="0 0 14 14" fill="none" xmlns="http://www.w3.org/2000/svg">
<path d="M7.00261 10.4996C7.09908 10.4996 7.19095 10.4799 7.2743 10.4445C7.35895 10.4084 7.43441 10.3566 7.49806 10.2922L11.6952 6.09501C11.9689 5.82136 11.9689 5.3784 11.6952 5.10475C11.4223 4.83176 10.9786 4.83176 10.7057 5.10475L7.70073 8.11039V0.700211C7.70073 0.313684 7.38705 0 7.00053 0C6.61401 0 6.30033 0.313684 6.30033 0.700211V8.11039L3.29541 5.10475C3.02242 4.83176 2.57881 4.83176 2.30582 5.10475C2.03217 5.3784 2.03217 5.82136 2.30582 6.09501L6.50569 10.2949C6.57393 10.3638 6.65334 10.415 6.73865 10.4492C6.81739 10.4813 6.90402 10.499 6.99391 10.4997L7.00261 10.4996Z" fill="#333333"/>
<path d="M1.4004 9.80008C1.4004 9.41355 1.08672 9.09987 0.700202 9.09987C0.31368 9.09987 0 9.41355 0 9.80008V11.9C0 13.0596 0.940384 14 2.09993 14H11.9001C13.0596 14 14 13.0596 14 11.9V9.80008C14 9.41355 13.6863 9.09987 13.2998 9.09987C12.9133 9.09987 12.5996 9.41355 12.5996 9.80008V11.9C12.5996 12.2866 12.2866 12.5996 11.9001 12.5996H2.09992C1.71339 12.5996 1.40037 12.2866 1.40037 11.9L1.4004 9.80008Z" fill="#333333"/>
</svg>
