<svg width="14" height="14" viewBox="0 0 14 14" fill="none" xmlns="http://www.w3.org/2000/svg">
<path d="M11.9377 0H2.06231C0.926154 0 0 0.926154 0 2.06231C0 2.61154 0.215385 3.12846 0.603077 3.52154L4.84615 7.76462V12.7023C4.84615 13.4185 5.42769 14 6.14385 14C6.48846 14 6.82231 13.86 7.06462 13.6177L8.68 12.0023C8.98692 11.6954 9.15385 11.2915 9.15385 10.8608V7.75923L13.3969 3.51615C13.7846 3.12846 14 2.61154 14 2.06231C14 0.926154 13.0738 0 11.9377 0ZM12.6323 2.75692L8.39462 7C8.19 7.20462 8.07692 7.47385 8.07692 7.76462V10.8662C8.07692 11.0062 8.01769 11.1462 7.92077 11.2485L6.30539 12.8638C6.17615 12.9877 5.92308 12.88 5.92308 12.7023V7.76462C5.92308 7.47923 5.81 7.20462 5.60538 7.00538L1.36769 2.75692C1.18462 2.57385 1.07692 2.32077 1.07692 2.06231C1.07692 1.51846 1.51846 1.07692 2.06231 1.07692H11.9377C12.4815 1.07692 12.9231 1.51846 12.9231 2.06231C12.9231 2.32077 12.8154 2.57385 12.6323 2.75692Z" fill="black"/>
</svg>
