<svg width="278" height="100" viewBox="0 0 278 100" fill="none" xmlns="http://www.w3.org/2000/svg">
<g clip-path="url(#clip0_2_7)">
<path d="M266.667 22.2222V0H233.333V22.2222H222.222H211.111H200H144.444V0H122.222H111.111H100H88.8889H66.6667V22.2222H55.5556H0V100H66.6667H77.7778H88.8889H111.111H133.333H200H222.222H233.333H266.667V55.5556H277.778V22.2222H266.667Z" fill="white"/>
<path d="M222.222 33.3333H211.111V44.4444V55.5555V66.6666V77.7778V88.8889H222.222V77.7778V66.6666V55.5555V44.4444H233.333V33.3333H222.222Z" fill="#A86EA7"/>
<path d="M255.556 33.3333V22.2222V11.1111H244.444V22.2222V33.3333H233.333V44.4444H244.444V55.5555V66.6666V77.7778V88.8889H255.556V77.7778V66.6666V55.5555V44.4444H266.667V33.3333H255.556Z" fill="#F9AE6C"/>
<path d="M111.111 77.7778V66.6666V55.5555V44.4444V33.3333V22.2222V11.1111H100V22.2222V33.3333V44.4444V55.5555V66.6666V77.7778V88.8889H111.111H122.222V77.7778H111.111Z" fill="#40A861"/>
<path d="M200 77.7778H188.889H177.778H166.667V66.6666V55.5555V44.4444H177.778H188.889V55.5555H177.778V66.6666H188.889H200V55.5555V44.4444V33.3333H188.889H177.778H166.667H155.556H144.444H133.333V22.2222V11.1111H122.222V22.2222V33.3333V44.4444V55.5555V66.6666H133.333V55.5555V44.4444H144.444H155.556V55.5555V66.6666V77.7778H144.444H133.333H122.222V88.8889H133.333H144.444H155.556H166.667H177.778H188.889H200H211.111V77.7778H200Z" fill="#42BDDE"/>
<path d="M88.8889 11.1111H77.7778V22.2222H88.8889V11.1111Z" fill="#3B446F"/>
<path d="M88.8889 77.7778V66.6666V55.5555V44.4444V33.3333H77.7778H66.6667V44.4444H77.7778V55.5555V66.6666V77.7778V88.8889H88.8889H100V77.7778H88.8889Z" fill="#3B446F"/>
<path d="M22.2222 55.5555V44.4444H33.3333H44.4444H55.5556H66.6667V33.3333H55.5556H44.4444H33.3333H22.2222H11.1111V44.4444V55.5555V66.6666V77.7778V88.8889H22.2222H33.3333H44.4444H55.5556H66.6667V77.7778V66.6666V55.5555H55.5556H44.4444H33.3333V66.6666H44.4444H55.5556V77.7778H44.4444H33.3333H22.2222V66.6666V55.5555Z" fill="#EF5549"/>
</g>
<defs>
<clipPath id="clip0_2_7">
<rect width="277.778" height="100" fill="white"/>
</clipPath>
</defs>
</svg>
