<svg width="16" height="16" viewBox="0 0 16 16" fill="none" xmlns="http://www.w3.org/2000/svg">
<path d="M15.6251 13.8177L11.8228 10.0153C12.521 8.96728 12.8961 7.73717 12.8961 6.44945C12.8961 4.7268 12.2253 3.1071 11.007 1.88908C9.78895 0.670888 8.16926 0 6.4466 0C4.72395 0 3.10408 0.670888 1.88588 1.88908C-0.628568 4.40371 -0.628746 8.49536 1.88606 11.0102C3.10408 12.2284 4.72378 12.8993 6.44643 12.8993C7.73415 12.8993 8.96443 12.5241 10.0121 11.826L13.8145 15.6283C14.3145 16.1283 15.1251 16.1283 15.6251 15.6283C16.125 15.1281 16.125 14.3177 15.6251 13.8177ZM3.40618 9.49005C1.72994 7.81345 1.72976 5.08563 3.40618 3.40938C4.21825 2.59713 5.29811 2.14994 6.4466 2.14994C7.5951 2.14994 8.67478 2.59713 9.48703 3.40938C10.2991 4.22145 10.7463 5.30113 10.7463 6.44963C10.7463 7.59812 10.2991 8.6778 9.48667 9.48987C8.67478 10.3019 7.59492 10.7493 6.44643 10.7493C5.29811 10.7493 4.21808 10.3021 3.40618 9.49005Z" fill="white"/>
</svg>
