<svg width="14" height="10" viewBox="0 0 14 10" fill="none" xmlns="http://www.w3.org/2000/svg">
<path d="M13.3779 7.90748H6.82632C6.4827 7.90748 6.2041 7.62888 6.2041 7.28526C6.2041 6.94164 6.4827 6.66304 6.82632 6.66304H13.3779C13.7215 6.66304 14.0001 6.94164 14.0001 7.28526C14.0001 7.62888 13.7215 7.90748 13.3779 7.90748Z" fill="#333333"/>
<path d="M3.78544 7.90748H0.622222C0.2786 7.90748 0 7.62888 0 7.28526C0 6.94164 0.2786 6.66304 0.622222 6.66304H3.78544C4.12907 6.66304 4.40767 6.94164 4.40767 7.28526C4.40767 7.62888 4.12907 7.90748 3.78544 7.90748Z" fill="#333333"/>
<path d="M13.3782 2.76468H10.215C9.87137 2.76468 9.59277 2.48608 9.59277 2.14246C9.59277 1.79883 9.87137 1.52023 10.215 1.52023H13.3782C13.7218 1.52023 14.0004 1.79883 14.0004 2.14246C14.0004 2.48608 13.7218 2.76468 13.3782 2.76468Z" fill="#333333"/>
<path d="M7.17376 2.76468H0.622222C0.2786 2.76468 0 2.48608 0 2.14246C0 1.79883 0.2786 1.52023 0.622222 1.52023H7.17376C7.51738 1.52023 7.79598 1.79883 7.79598 2.14246C7.79598 2.48608 7.51738 2.76468 7.17376 2.76468Z" fill="#333333"/>
<path d="M5.30571 9.42809C4.12426 9.42809 3.16309 8.46692 3.16309 7.28547C3.16309 6.10403 4.12426 5.14301 5.30571 5.14301C6.48715 5.14301 7.44833 6.10418 7.44833 7.28547C7.44833 8.46692 6.48715 9.42809 5.30571 9.42809Z" fill="#333333"/>
<path d="M8.69438 4.28524C7.51278 4.28524 6.55176 3.32407 6.55176 2.14262C6.55176 0.961178 7.51294 0 8.69438 0C9.87582 0 10.8368 0.961178 10.8368 2.14262C10.8368 3.32407 9.87567 4.28524 8.69438 4.28524Z" fill="#333333"/>
</svg>
