<svg width="12" height="12" viewBox="0 0 12 12" fill="none" xmlns="http://www.w3.org/2000/svg">
<path fill-rule="evenodd" clip-rule="evenodd" d="M-0.000390586 5.9C-0.000390512 6.75 0.6233 7.2 1.49827 7.2L4.01216 7.2C3.83702 7.9332 3.74851 8.6044 3.74851 9.2C3.74851 11.514 4.3602 12 4.87363 12C5.22879 12 5.47181 11.9604 5.8146 11.7444C5.90836 11.6852 5.97324 11.586 5.99274 11.4716L6.36216 9.3052C6.75858 8.166 7.79031 7.1852 8.62402 6.4972L8.62402 0.7924C8.33674 0.7924 8.01083 0.6204 7.66542 0.438C7.25775 0.222799 6.83658 1.56263e-07 6.37378 1.96722e-07L2.81091 5.08199e-07C2.06158 5.73707e-07 1.50164 0.633601 1.50164 1.2C1.50164 1.3092 1.51252 1.4088 1.53015 1.4988C1.0666 1.682 0.749688 2.1008 0.749688 2.6C0.749688 2.838 0.789068 3.0444 0.870452 3.226C0.586922 3.4396 0.299641 3.7888 0.299641 4.2C0.299641 4.424 0.396777 4.6916 0.539667 4.874C0.213382 5.1348 -0.000390619 5.52 -0.000390586 5.9ZM0.785693 5.9C0.785693 5.3936 1.28975 5.3336 1.35163 5.0876C1.42026 4.8168 1.04822 4.7084 1.04822 4.2332C1.04822 3.7332 1.61416 3.7392 1.69179 3.4812C1.7833 3.1752 1.50577 3.0916 1.50577 2.6C1.50577 2.5692 1.50877 2.5396 1.51814 2.5104C1.5954 2.0992 2.16884 2.088 2.26747 1.9188C2.37286 1.7376 2.25247 1.6248 2.25247 1.2C2.25247 0.9668 2.4985 0.800001 2.81091 0.800001L6.37378 0.8C6.66106 0.8 6.98697 0.9724 7.33239 1.1548C7.62717 1.3104 7.92945 1.47 8.24898 1.5464L8.24898 5.7936C7.31888 6.5532 6.11238 7.682 5.64583 9.0644C5.63908 9.0852 5.63346 9.1068 5.62971 9.1284L5.28767 11.1364C5.17441 11.1876 5.07015 11.2 4.87363 11.2C4.79074 11.2 4.49859 10.7212 4.49859 9.2C4.49859 8.6184 4.59572 7.9464 4.78774 7.2L4.88075 7.2C5.08777 7.2 5.25579 7.0212 5.25579 6.8C5.25579 6.5788 5.08777 6.4 4.88075 6.4L1.49827 6.4C1.12923 6.4 0.785693 6.2124 0.785693 5.9Z" fill="#EF5549"/>
<path fill-rule="evenodd" clip-rule="evenodd" d="M8.99968 0.000256324L11.2499 0.000256127C11.6636 0.000256091 12 0.359056 12 0.800256L12 6.40026C12 6.84146 11.6636 7.20026 11.2499 7.20026L8.99968 7.20026C8.58601 7.20026 8.2496 6.84146 8.2496 6.40026L8.2496 0.800257C8.2496 0.359056 8.58601 0.00025636 8.99968 0.000256324ZM11.2499 6.40026L11.2499 0.800256L9.00081 0.800257L8.99968 6.40026L11.2499 6.40026Z" fill="#EF5549"/>
</svg>
