<svg width="12" height="12" viewBox="0 0 12 12" fill="none" xmlns="http://www.w3.org/2000/svg">
<path fill-rule="evenodd" clip-rule="evenodd" d="M12.0004 6.1C12.0004 5.25 11.3767 4.8 10.5017 4.8H7.98784C8.16298 4.0668 8.25149 3.3956 8.25149 2.8C8.25149 0.486 7.6398 0 7.12637 0C6.77121 0 6.52819 0.0396 6.1854 0.2556C6.09164 0.3148 6.02676 0.414 6.00726 0.5284L5.63784 2.6948C5.24142 3.834 4.20969 4.8148 3.37598 5.5028V11.2076C3.66326 11.2076 3.98917 11.3796 4.33458 11.562C4.74225 11.7772 5.16342 12 5.62621 12H9.18909C9.93842 12 10.4984 11.3664 10.4984 10.8C10.4984 10.6908 10.4875 10.5912 10.4699 10.5012C10.9334 10.318 11.2503 9.8992 11.2503 9.4C11.2503 9.162 11.2109 8.9556 11.1295 8.774C11.4131 8.5604 11.7004 8.2112 11.7004 7.8C11.7004 7.576 11.6032 7.3084 11.4603 7.126C11.7866 6.8652 12.0004 6.48 12.0004 6.1ZM11.2143 6.1C11.2143 6.6064 10.7103 6.6664 10.6484 6.9124C10.5797 7.1832 10.9518 7.2916 10.9518 7.7668C10.9518 8.2668 10.3858 8.2608 10.3082 8.5188C10.2167 8.8248 10.4942 8.9084 10.4942 9.4C10.4942 9.4308 10.4912 9.4604 10.4819 9.4896C10.4046 9.9008 9.83116 9.912 9.73252 10.0812C9.62714 10.2624 9.74753 10.3752 9.74753 10.8C9.74753 11.0332 9.5015 11.2 9.18909 11.2H5.62621C5.33893 11.2 5.01303 11.0276 4.66761 10.8452C4.37283 10.6896 4.07055 10.53 3.75102 10.4536V6.2064C4.68111 5.4468 5.88762 4.318 6.35417 2.9356C6.36092 2.9148 6.36654 2.8932 6.37029 2.8716L6.71233 0.8636C6.82559 0.8124 6.92985 0.8 7.12637 0.8C7.20926 0.8 7.50141 1.2788 7.50141 2.8C7.50141 3.3816 7.40428 4.0536 7.21226 4.8H7.11925C6.91223 4.8 6.74421 4.9788 6.74421 5.2C6.74421 5.4212 6.91223 5.6 7.11925 5.6H10.5017C10.8708 5.6 11.2143 5.7876 11.2143 6.1Z" fill="#EF5549"/>
<path fill-rule="evenodd" clip-rule="evenodd" d="M3.00032 11.9997H0.750079C0.336411 11.9997 0 11.6409 0 11.1997V5.59974C0 5.15854 0.336411 4.79974 0.750079 4.79974H3.00032C3.41399 4.79974 3.7504 5.15854 3.7504 5.59974V11.1997C3.7504 11.6409 3.41399 11.9997 3.00032 11.9997ZM0.750079 5.59974V11.1997H2.99919L3.00032 5.59974H0.750079Z" fill="#EF5549"/>
</svg>
