<svg width="14" height="14" viewBox="0 0 14 14" fill="none" xmlns="http://www.w3.org/2000/svg">
<path d="M6.99738 3.50038C6.90092 3.50038 6.80905 3.52007 6.7257 3.55551C6.64105 3.5916 6.56558 3.64344 6.50193 3.70775L2.30476 7.90499C2.03111 8.17864 2.03111 8.6216 2.30476 8.89525C2.57775 9.16824 3.02135 9.16824 3.29435 8.89525L6.29927 5.88961L6.29927 13.2998C6.29927 13.6863 6.61295 14 6.99947 14C7.38599 14 7.69967 13.6863 7.69967 13.2998L7.69967 5.88961L10.7046 8.89525C10.9776 9.16824 11.4212 9.16824 11.6942 8.89525C11.9678 8.6216 11.9678 8.17864 11.6942 7.90499L7.49431 3.70507C7.42606 3.63616 7.34666 3.58497 7.26135 3.55085C7.18261 3.51869 7.09598 3.50097 7.00609 3.50032L6.99738 3.50038Z" fill="#333333"/>
<path d="M12.5996 4.19992C12.5996 4.58645 12.9133 4.90013 13.2998 4.90013C13.6863 4.90013 14 4.58645 14 4.19992L14 2.09996C14 0.940394 13.0596 -2.30197e-06 11.9001 -2.2006e-06L2.09993 -1.34385e-06C0.940383 -1.24248e-06 -1.29985e-06 0.940395 -1.19847e-06 2.09996L-1.01489e-06 4.19992C-9.81097e-07 4.58645 0.313679 4.90013 0.700201 4.90013C1.08672 4.90013 1.4004 4.58645 1.4004 4.19992L1.4004 2.09996C1.4004 1.71343 1.71343 1.4004 2.09995 1.4004L11.9001 1.4004C12.2866 1.4004 12.5996 1.71343 12.5996 2.09996L12.5996 4.19992Z" fill="#333333"/>
</svg>
